<?xml version="1.0" standalone="no"?><!DOCTYPE svg PUBLIC "-//W3C//DTD SVG 1.1//EN" "http://www.w3.org/Graphics/SVG/1.1/DTD/svg11.dtd"><svg t="1586348163782" class="icon" viewBox="0 0 1024 1024" version="1.1" xmlns="http://www.w3.org/2000/svg" p-id="4101" xmlns:xlink="http://www.w3.org/1999/xlink" width="300" height="300"><defs><style type="text/css"></style></defs><path d="M927.528421 155.324632C730.920421 131.098947 530.270316 24.791579 528.276211 23.767579L512.053895 15.090526 495.831579 23.767579C493.837474 24.791579 293.187368 131.098947 96.579368 155.324632l-30.315789 3.772631v269.958737c0 91.432421 23.632842 181.086316 68.365474 259.233684A778.347789 778.347789 0 0 0 456.811789 995.166316a121.397895 121.397895 0 0 0 55.242106 13.231158c18.970947 0 37.941895-4.392421 55.242105-13.231158a778.428632 778.428632 0 0 0 322.182737-306.79579 522.698105 522.698105 0 0 0 68.365474-259.314526V159.097263l-30.31579-3.772631z m-38.723368 273.731368c0 79.333053-20.426105 157.022316-59.149474 224.633263a709.227789 709.227789 0 0 1-293.645474 279.605895 52.816842 52.816842 0 0 1-47.912421 0A709.362526 709.362526 0 0 1 194.452211 653.689263a452.634947 452.634947 0 0 1-59.149474-224.633263v-209.111579C302.888421 193.104842 461.608421 118.568421 512.053895 93.345684c50.391579 25.222737 209.111579 99.759158 376.751158 126.544842v209.138527z" fill="#38BFD4" p-id="4102"></path><path d="M367.669895 256.134737c-20.506947 88.387368-46.403368 160.983579-77.635369 217.734737 6.521263 29.184 11.452632 58.960842 14.740211 89.384421 10.832842-16.437895 21.234526-33.684211 31.205052-51.712v209.30021h56.239158V387.341474c13.096421-35.301053 24.845474-72.730947 35.247158-112.424421l-59.79621-18.782316z" fill="#38BFD4" p-id="4103"></path><path d="M699.230316 451.799579v-175.912421h-261.497263v175.912421h97.28v42.334316h-126.275369v53.625263h93.507369C471.848421 586.913684 436.547368 618.711579 396.207158 643.233684c13.123368 19.132632 24.414316 37.941895 33.953684 56.42779 40.286316-29.615158 75.237053-66.479158 104.825263-110.511158v131.691789h63.380211V586.105263c23.659789 43.250526 57.128421 79.252211 100.405895 107.924211 8.623158-15.629474 20.372211-36.028632 35.247157-61.089685-48.208842-23.066947-84.102737-51.469474-107.762526-85.153684h102.4v-53.625263h-130.290526v-42.334316h100.837052z m-202.159158-119.942737h142.821053v63.973053h-142.821053v-63.973053z" fill="#38BFD4" p-id="4104"></path></svg>