<?xml version="1.0" standalone="no"?><!DOCTYPE svg PUBLIC "-//W3C//DTD SVG 1.1//EN" "http://www.w3.org/Graphics/SVG/1.1/DTD/svg11.dtd"><svg t="1586347978056" class="icon" viewBox="0 0 1024 1024" version="1.1" xmlns="http://www.w3.org/2000/svg" p-id="1815" xmlns:xlink="http://www.w3.org/1999/xlink" width="300" height="300"><defs><style type="text/css"></style></defs><path d="M851.968 243.2h105.984v518.656h-105.984z" fill="#6DACE7" p-id="1816"></path><path d="M199.68 243.2h758.272v102.912H199.68z" fill="#6DACE7" p-id="1817"></path><path d="M854.528 834.56H69.632c-11.264 0-19.968-9.216-19.968-19.968V346.112c0-11.264 9.216-19.968 19.968-19.968h51.712v39.936h-31.744v428.544H834.56V366.08H199.68c-11.264 0-19.968-9.216-19.968-19.968V243.2c0-11.264 9.216-19.968 19.968-19.968h758.272c11.264 0 19.968 9.216 19.968 19.968V742.4c0 11.264-9.216 19.968-19.968 19.968h-37.888v-39.936h17.92V263.168H219.648v62.976h634.88c11.264 0 19.968 9.216 19.968 19.968v468.48c0 10.752-8.704 19.968-19.968 19.968z" fill="#0024A2" p-id="1818"></path><path d="M576.512 695.808H325.12v-39.936h231.424v-58.88H347.648c-11.264 0-19.968-9.216-19.968-19.968V472.576c0-11.264 9.216-19.968 19.968-19.968h248.832v39.936H368.128v64.512h208.384c11.264 0 19.968 9.216 19.968 19.968V675.84c0 11.264-8.704 19.968-19.968 19.968zM701.952 456.704h39.936v239.104h-39.936z" fill="#0024A2" p-id="1819"></path><path d="M440.832 412.16h39.936v324.096h-39.936zM179.712 456.704h39.936v239.104h-39.936z" fill="#0024A2" p-id="1820"></path></svg>